<?xml version="1.0" encoding="UTF-8"?>
<svg id="Layer_2" data-name="Layer 2" xmlns="http://www.w3.org/2000/svg" viewBox="0 0 705.12 339.96">
  <defs>
    <style>
      .cls-1 {
        fill: #181716;
      }
    </style>
  </defs>
  <g id="Layer_1-2" data-name="Layer 1">
    <g>
      <path class="cls-1" d="M77.41,68.34c12-17.5,13.5-39,31.5-56,28-26.5,65.5,3,39,37-12.5,15-31.5,16.5-39.5,30-8.5,15-5,34-13.5,51-10,21-36.5,23.5-34.5,43.5,2.5,22,48.5,23.5,60,1.5,8.5-16.5-.5-40,6.5-55,10.5-26,53-24.5,52,7.5-.5,15-15.5,26-20.5,40s3.5,24,19,22.5c15-1.5,19.5-22,38.5-17.5,26.5,6.5,18.5,54-8,60-23,5-33.5-4-45.5-4.5-14.5-1-22.5,11-23.5,26.5-1.5,20,3,32,1.5,49.5-4.5,47-66,49-58-3,3.5-23,15.5-32,20-51.5,5-20.5-6-31-26.5-28.5-19.5,3-30.5,11-51,7-22-5-31.5-26.5-20-47,8.5-15,22-16.5,29-31.5,8-16,2.5-29,11.5-45,9-17,20.5-20,32-36.5Z"/>
      <path class="cls-1" d="M397.53,29.28c31.5,4.05,28.5,28.77,38.5,45.38,7,11.35,24.5,24.72,25,43.36,1,24.72-23.5,39.71-24.5,64.43,0,17.83,12,34.85,2,54.7-7,13.78-22.5,19.45-33,31.2-14,14.59-17,41.33-64.5,40.52-46-.41-46-40.92-56.5-58.35-8-14.18-29-29.58-28.5-53.49.5-27.15,25-42.14,33-62.4,7.5-21.48-3.5-40.11,8-56.32,12.5-17.02,37-15.8,52-22.29,15.5-7.29,22.5-29.98,48.5-26.74ZM410.26,93.47c-.96-4.26-2.86-8.26-6.59-11.83-8.75-8.37-21.97-10.27-33.51-8.35-7.96,1.33-16.25,4.49-22.11,10.22-8.29,8.09-8.25,22.17-15.8,31.89-5.88,7.56-12.89,14.19-18.68,21.81-6.55,8.62-11.47,18.48-14.42,28.91-2.43,8.6-3.4,18.3,1.01,26.07,2.1,3.71,5.27,6.67,7.85,10.06,4.66,6.12,7.34,13.73,7.65,21.41.35,8.43-3.11,15.53-.11,24.03,5.37,17.16,24.64,22.13,40.62,18.72,19.3-4.11,35.61-21.61,37.11-41.23.65-8.51.05-17.19,2.11-25.47,4.54-18.22,21.46-32.55,21.92-51.32.21-8.68-3.21-16.97-5.09-25.45-2.2-9.92.12-20.3-1.94-29.48Z"/>
      <path class="cls-1" d="M550.3,66.23c12-17.5,13.5-39,31.5-56,28-26.5,65.5,3,39,37-12.5,15-31.5,16.5-39.5,30-8.5,15-5,34-13.5,51-10,21-36.5,23.5-34.5,43.5,2.5,22,48.5,23.5,60,1.5,8.5-16.5-.5-40,6.5-55,10.5-26,53-24.5,52,7.5-.5,15-15.5,26-20.5,40s3.5,24,19,22.5c15-1.5,19.5-22,38.5-17.5,26.5,6.5,18.5,54-8,60-23,5-33.5-4-45.5-4.5-14.5-1-22.5,11-23.5,26.5-1.5,20,3,32,1.5,49.5-4.5,47-66,49-58-3,3.5-23,15.5-32,20-51.5,5-20.5-6-31-26.5-28.5-19.5,3-30.5,11-51,7-22-5-31.5-26.5-20-47,8.5-15,22-16.5,29-31.5,8-16,2.5-29,11.5-45,9-17,20.5-20,32-36.5Z"/>
    </g>
    <path class="cls-1" d="M354.67,188.04c-1.74-3.1-5.82-4.27-9.27-2.29-3.88,2.38-7.64,8.05-13.28,7.75-7.06-.44-11.58-7.86-6.53-14.33,2.84-3.6,8.03-2.89,11.39-4.7,3.27-1.64,3.58-5.34,1.63-7.27-2.52-2.46-6.86-3.55-9.26-7.01-3.43-5.1.58-12.79,6.62-12.05,4.45.51,6.74,4.56,9.47,5.84,2.73,1.29,6.15.15,7.19-2.93,1.05-3.08.35-11.2,5.51-13.95,6.02-3.14,12.34-.96,15.5,4.64,2.6,4.65-2.58,10.18-4.14,13.41-1.65,3.39,1.26,6.71,4.37,6.91,3.7.31,8.37-2.71,12.73-.1,5.03,2.97,6.12,9.59.89,14.03-4.54,3.96-9.89.8-13.79,1.24-3.47.46-5.2,3.59-4.21,6.5,1.15,2.99,5.91,6.46,4.45,11.47-1.76,6.34-8.19,9.04-13.69,5.38-4.85-3.3-3.69-9.33-5.59-12.52Z"/>
  </g>
</svg>