<?xml version="1.0" encoding="UTF-8"?>
<svg xmlns="http://www.w3.org/2000/svg" version="1.1" viewBox="0 0 50 50">
  <defs>
    <style>
      .cls-1 {
        fill: #201a1a;
      }
    </style>
  </defs>
  <!-- Generator: Adobe Illustrator 28.6.0, SVG Export Plug-In . SVG Version: 1.2.0 Build 709)  -->
  <g>
    <g id="Layer_1">
      <path class="cls-1" d="M16,3c-7.2,0-13,5.8-13,13v18c0,7.2,5.8,13,13,13h18c7.2,0,13-5.8,13-13v-18c0-7.2-5.8-13-13-13h-18ZM37,11c1.1,0,2,.9,2,2s-.9,2-2,2-2-.9-2-2,.9-2,2-2ZM25,14c6.1,0,11,4.9,11,11s-4.9,11-11,11-11-4.9-11-11,4.9-11,11-11ZM25,16c-5,0-9,4-9,9s4,9,9,9,9-4,9-9-4-9-9-9Z"/>
    </g>
  </g>
</svg>