<svg width="479" height="68" viewBox="0 0 479 68" fill="none" xmlns="http://www.w3.org/2000/svg">
<path d="M471.509 20.096C471.221 23.048 468.773 25.424 469.781 26.648C471.437 28.592 474.533 25.208 476.837 25.568C480.725 26.144 477.773 32.768 473.381 33.488C470.789 33.92 467.189 32.984 466.829 37.232C466.613 39.968 468.197 42.128 468.053 45.152C467.909 48.32 463.085 52.64 464.885 53.72C467.693 55.376 471.797 47.96 475.253 47.672C478.709 47.384 478.781 52.136 475.757 55.088C473.165 57.608 472.085 56.6 469.997 57.896C468.269 58.976 466.037 63.8 461.717 63.152C459.197 62.792 457.901 60.92 458.045 58.688C458.261 55.88 459.989 53.936 460.133 51.776C460.277 49.976 459.197 47.96 459.413 45.584C459.701 42.776 462.221 39.608 462.581 36.872C462.797 35.36 461.357 33.92 460.205 34.136C458.261 34.496 457.397 36.44 454.517 36.152C452.141 35.936 451.061 32.408 455.669 30.896C457.829 30.176 457.541 28.592 459.557 27.872C461.357 27.224 462.509 28.232 463.733 27.008C465.389 25.352 464.165 22.256 464.237 19.664C464.381 14.768 472.157 13.328 471.509 20.096Z" fill="#201A1A"/>
<path d="M418.848 34.208C418.848 31.112 423.6 30.968 425.472 29.456C427.344 27.944 428.28 23.84 431.88 23.84C436.272 23.84 432.888 30.608 435.264 31.328C438.36 32.264 441.312 27.656 444.264 27.512C446.64 27.368 448.584 28.592 448.512 31.472C448.44 33.92 446.784 34.136 445.632 36.656C444.408 39.32 445.2 46.088 441.096 46.304C438.504 46.448 437.856 44.144 438.792 41.48C439.368 39.896 441.888 36.512 438.432 35.432C435.696 34.568 433.968 37.376 433.752 39.752C433.464 42.344 434.112 43.856 433.896 45.8C433.608 48.176 431.016 52.424 432.672 53.288C434.328 54.152 437.568 51.92 440.232 51.704C442.176 51.56 442.824 53.576 442.464 55.232C441.96 57.392 440.232 59.048 436.56 59.84C432.96 60.632 429.72 59.984 426.768 61.136C423.24 62.504 422.304 64.088 419.28 64.232C416.76 64.376 415.104 61.712 416.616 59.48C418.632 56.528 421.008 58.04 423.24 56.312C425.328 54.728 426.552 52.856 427.776 48.752C429 44.648 428.712 40.976 429.648 37.88C430.656 34.496 428.352 34.136 426.84 35.648C425.4 37.088 424.464 37.808 422.52 37.808C420.576 37.808 418.848 36.656 418.848 34.208Z" fill="#201A1A"/>
<path d="M386.709 47.744C383.613 47.744 382.965 43.64 385.269 42.128C386.997 40.904 390.237 41.264 391.749 39.104C392.685 37.808 392.397 34.784 393.549 31.544C394.413 29.168 396.429 26 401.109 26C404.853 26 406.797 28.664 406.797 32.048C406.797 40.472 394.629 46.592 394.629 50.912C394.629 52.28 395.493 53.216 396.789 53.216C400.245 53.216 403.989 46.808 409.029 46.808C411.765 46.808 413.925 48.824 413.925 51.92C413.925 55.088 411.909 56.384 410.109 56.384C407.949 56.384 407.733 54.512 405.717 54.512C401.469 54.512 399.957 61.784 393.909 61.784C390.597 61.784 388.797 59.696 388.797 56.96C388.797 53.216 391.317 50.912 391.317 48.896C391.317 47.888 390.813 47.024 389.877 47.024C389.085 47.024 388.221 47.744 386.709 47.744ZM401.469 33.488C401.469 32.552 401.109 31.832 400.245 31.832C398.949 31.832 397.221 35.216 397.221 37.232C397.221 38.096 397.509 38.672 398.373 38.672C399.813 38.672 401.469 35.576 401.469 33.488Z" fill="#201A1A"/>
<path d="M328.331 33.488C331.715 31.832 333.515 34.064 335.963 34.64C338.627 35.288 340.571 34.568 342.011 36.008C343.235 37.232 342.515 39.104 342.731 40.472C342.947 41.84 343.883 42.848 343.595 44.648C343.235 47.096 339.563 47.888 337.619 46.448C335.819 45.152 336.323 42.488 335.963 40.112C335.675 38.24 333.299 38.384 332.435 39.752C331.715 40.904 331.427 42.704 330.131 43.568C328.547 44.648 326.387 44.288 324.515 46.52C322.427 49.04 321.707 55.736 325.739 57.536C329.555 59.264 330.779 55.448 333.875 55.304C337.403 55.16 338.195 58.832 341.147 57.968C343.739 57.176 343.739 53 346.043 50.336C347.987 48.032 350.939 47.888 352.019 42.776C352.523 40.544 350.723 38.168 351.659 35.504C352.595 32.84 355.907 31.184 356.555 28.88C356.699 28.376 356.771 27.872 356.771 27.44C356.771 26 356.123 24.848 356.123 23.12C356.123 19.952 359.939 17.288 359.939 14.192C359.939 12.464 358.787 11.168 356.915 11.168C354.467 11.168 352.451 13.328 349.499 13.328C347.987 13.328 347.267 12.464 347.267 11.168C347.267 8.64797 350.003 5.91198 352.379 5.91198C354.035 5.91198 355.115 6.34398 356.555 6.34398C359.939 6.34398 362.387 0.151978 365.123 0.151978C367.787 0.151978 366.923 3.24798 367.211 5.55198C367.427 7.71198 368.579 8.35997 368.579 10.016C368.579 13.328 365.123 14.192 364.403 17.288C363.755 20.024 364.619 22.04 364.619 24.056C364.619 27.368 360.299 31.832 360.299 33.992C360.299 34.712 360.731 35.144 361.307 35.144C362.747 35.144 363.467 33.344 364.907 33.2C366.203 33.128 367.139 34.136 368.651 33.992C369.947 33.848 370.739 32.408 372.611 32.408C375.059 32.408 376.499 34.28 376.283 36.656C376.067 39.248 374.483 40.616 374.195 42.272C373.907 43.928 374.195 46.016 373.907 47.816C373.547 49.904 370.739 52.424 371.747 53.648C372.611 54.656 375.131 51.704 377.147 51.704C380.531 51.704 380.891 57.032 377.003 57.968C374.555 58.544 372.899 57.968 370.811 58.544C368.651 59.12 365.915 61.496 362.891 61.712C358.787 62 357.419 56.24 361.739 54.8C363.467 54.224 364.907 55.016 365.771 53.648C366.707 52.136 365.555 49.688 366.131 47.672C366.635 46.016 368.219 44.864 369.155 43.136C369.947 41.696 369.731 39.464 367.715 38.888C365.627 38.312 361.523 38.6 359.075 40.688C355.619 43.568 357.563 49.472 355.979 51.92C353.891 55.232 347.195 55.664 347.195 59.048C347.195 62.288 351.515 59.408 353.891 59.408C355.979 59.408 356.987 60.92 356.987 62.648C356.987 64.592 355.619 66.68 353.027 66.896C350.867 67.04 349.067 66.104 347.411 66.32C345.611 66.536 344.459 68.048 341.939 67.688C338.987 67.256 339.707 62.144 335.387 62.144C332.219 62.144 330.707 65.528 327.827 65.024C325.235 64.592 324.083 62.864 322.283 61.928C320.555 60.992 316.883 61.136 316.019 58.904C315.083 56.456 317.315 54.296 317.603 51.92C317.891 49.472 316.883 47.888 317.531 45.656C318.395 42.776 321.923 42.056 323.435 40.112C324.803 38.312 325.523 34.856 328.331 33.488Z" fill="#201A1A"/>
<path d="M300.016 24.7039C300.304 22.6159 302.104 22.2559 303.616 20.8159C304.768 19.7359 304.768 17.5039 307.144 17.7199C309.52 17.9359 309.304 20.4559 309.952 21.8239C310.6 23.1919 311.968 24.1279 311.824 26.5759C311.68 28.8079 309.16 30.1759 306.928 29.9599C304.408 29.7439 303.76 32.6239 305.056 34.0639C305.92 35.0719 307.576 34.2079 308.368 35.8639C309.304 37.8799 306.64 39.9679 306.28 41.9839C305.776 44.5039 306.712 45.5839 306.568 47.3119C306.352 50.1919 302.392 53.2879 303.76 55.6639C304.912 57.6079 309.88 56.3119 309.88 59.5519C309.88 61.9999 307.288 62.9359 304.624 62.6479C302.248 62.3599 300.016 61.2799 298.072 61.7119C295.84 62.2879 295.624 64.0159 292.96 64.3039C290.584 64.5199 289.216 61.8559 290.656 60.0559C293.32 56.6719 296.488 58.1119 297.712 55.5919C299.152 52.7119 297.856 49.6879 298.36 47.0959C298.936 44.2159 301.024 43.2079 302.176 41.2639C303.112 39.6799 302.752 37.8079 301.312 38.0239C299.152 38.3839 298.072 40.6879 295.48 40.6879C292.672 40.6879 291.736 37.3759 293.536 35.7199C296.056 33.3439 300.736 34.1359 301.672 30.3199C302.32 27.7279 299.656 27.0799 300.016 24.7039Z" fill="#201A1A"/>
<path d="M257.906 15.92C261.506 15.272 264.17 18.08 266.762 18.08C269.066 18.08 271.874 16.856 274.178 16.856C276.842 16.856 279.074 19.016 279.506 21.608C279.866 24.056 278.066 25.424 278.354 27.296C278.786 29.528 281.09 30.464 281.522 33.2C281.882 35.864 280.154 37.952 277.562 37.952C275.33 37.952 273.17 35.576 271.442 35.216C269.858 34.856 268.706 35.864 269.282 37.808C270.506 41.192 275.114 41.696 276.194 45.584C277.058 49.04 274.538 50.624 274.826 52.352C275.114 53.648 276.122 54.584 277.994 54.152C279.938 53.72 281.45 51.416 283.322 51.416C284.834 51.416 286.058 52.784 286.202 54.584C286.346 57.536 282.962 62.72 277.346 62.72C273.89 62.72 271.658 59.912 271.226 57.032C270.938 54.44 271.802 52.424 271.298 50.84C270.578 48.68 267.338 47.312 266.474 45.224C265.754 43.496 266.834 41.192 265.682 39.464C264.242 37.232 261.146 39.752 260.138 42.776C259.346 45.224 260.498 47.168 259.994 49.616C259.562 51.704 256.394 52.496 257.186 54.656C258.05 57.032 261.65 54.656 263.594 55.88C265.826 57.176 265.97 61.568 262.01 62.288C259.994 62.648 258.05 60.776 255.746 61.208C253.802 61.568 252.866 63.44 249.77 63.728C245.594 64.088 244.298 58.616 247.322 57.32C248.834 56.672 249.914 56.96 250.994 55.664C252.866 53.288 250.778 49.76 251.786 46.952C252.794 44.432 255.098 43.928 255.89 40.328C256.682 36.656 255.53 33.488 256.466 30.968C257.69 28.016 261.938 26.576 262.514 24.704C262.946 22.976 262.298 21.608 260.93 21.824C259.346 22.04 258.626 22.976 257.114 22.976C254.018 22.976 253.01 16.784 257.906 15.92ZM270.146 23.192C268.922 22.688 267.338 23.192 266.834 24.2C266.186 25.28 266.618 26.648 266.258 28.016C265.97 29.168 265.106 30.032 264.386 30.68C262.802 32.336 263.81 33.632 265.394 32.192C266.042 31.544 267.626 30.896 268.49 30.752C270.002 30.536 271.514 31.904 272.954 31.4C274.466 30.896 274.538 28.232 273.458 27.296C272.666 26.648 271.946 26.864 271.37 26.144C270.866 25.352 271.442 23.768 270.146 23.192Z" fill="#201A1A"/>
<path d="M199.761 38.168C198.681 38.744 197.889 39.824 196.521 39.824C193.785 39.824 192.705 36.656 194.577 35C195.729 33.992 197.817 33.704 199.401 32.336C200.985 30.968 200.697 28.664 202.353 27.008C204.441 24.92 207.105 25.784 207.321 27.728C207.537 29.816 205.521 31.328 206.889 32.12C208.617 33.128 210.777 26.288 214.521 26.288C216.969 26.288 217.329 28.52 219.057 29.816C220.497 30.896 222.441 30.032 223.809 31.472C226.977 34.784 219.561 40.256 219.561 43.352C219.561 45.296 220.281 46.376 220.353 48.032C220.425 49.688 219.705 50.984 220.281 52.064C220.929 53.288 223.881 52.568 224.025 55.52C224.169 59.048 219.273 58.616 216.969 59.336C214.089 60.2 213.369 62.144 210.633 62.144C208.113 62.144 207.537 58.832 209.769 56.6C212.505 53.864 214.161 54.584 214.665 51.704C215.169 48.824 213.729 46.304 213.873 43.712C214.017 41.12 216.681 38.528 215.961 35.72C215.241 32.912 211.497 32.912 208.905 36.656C207.105 39.248 207.681 41.408 206.601 43.928C205.017 47.528 203.289 49.4 203.505 51.992C203.721 54.44 205.305 54.872 206.313 56.024C207.537 57.392 207.393 59.264 206.025 60.2C204.441 61.28 202.641 60.992 200.841 61.928C198.969 62.864 197.529 64.952 195.225 64.952C191.625 64.952 192.777 60.632 195.225 59.048C196.881 57.968 198.393 56.6 198.537 54.656C198.681 52.784 197.601 50.336 198.537 47.456C199.041 45.944 201.273 42.632 201.993 40.328C202.713 37.952 201.345 37.304 199.761 38.168Z" fill="#201A1A"/>
<path d="M166.834 29.24C168.85 27.224 167.266 22.976 170.722 22.256C173.458 21.68 173.386 23.984 175.618 24.56C177.49 25.064 179.29 22.688 181.81 23.768C183.61 24.56 183.826 27.008 183.034 28.376C182.098 29.96 180.442 31.544 180.226 33.704C180.01 35.72 181.234 36.944 180.586 39.032C179.65 41.984 175.474 43.136 175.042 45.656C174.538 48.536 176.554 51.488 179.074 51.704C181.954 51.92 182.89 49.328 185.41 47.888C187.57 46.664 190.45 48.536 189.154 51.632C187.858 54.8 184.978 54.656 182.89 56.96C180.586 59.48 179.29 64.592 175.258 63.8C172.234 63.224 172.018 58.904 173.314 55.376C174.538 52.064 170.146 51.056 168.706 54.152C167.41 56.96 166.834 61.352 163.306 61.568C160.714 61.712 159.418 59.048 157.906 58.688C156.466 58.328 153.154 58.904 151.498 58.256C146.242 56.168 148.114 47.888 152.506 47.096C154.81 46.664 155.962 47.816 157.834 46.808C159.562 45.872 158.914 42.272 161.722 41.552C164.458 40.832 166.042 42.416 168.922 42.272C175.69 41.912 177.418 28.52 174.97 27.8C172.594 27.08 169.642 37.16 164.17 38.096C159.13 38.96 156.25 34.28 160.138 31.688C162.01 30.536 165.034 31.04 166.834 29.24ZM154.954 52.568C154.882 53.288 155.314 54.152 157.258 54.368C161.578 54.872 165.322 52.64 165.898 50.48C166.402 48.536 165.61 47.6 164.314 47.456C162.73 47.312 161.938 49.976 159.202 50.984C157.258 51.704 155.098 51.128 154.954 52.568Z" fill="#201A1A"/>
<path d="M136.9 11.024C138.196 8.72005 141.58 8.86404 142.516 11.024C143.308 12.824 142.588 15.2 143.596 17.288C144.532 19.304 147.772 21.248 148.132 23.696C148.492 26.792 145.108 28.448 143.02 26.936C141.076 25.496 141.22 20.672 139.564 21.248C137.476 21.896 139.924 26.072 139.78 28.88C139.636 31.616 137.548 31.976 136.612 34.784C135.892 37.016 137.116 41.48 136.18 44.072C135.316 46.376 131.212 49.832 133.012 51.92C134.524 53.72 137.332 50.84 139.78 50.264C143.02 49.544 144.388 52.496 142.516 54.656C141.436 55.952 138.844 56.096 136.756 57.392C133.228 59.624 130.708 64.592 128.404 63.368C125.596 61.856 129.484 57.176 126.46 55.52C123.148 53.72 122.356 60.632 118.396 60.632C115.732 60.632 114.364 57.824 112.708 56.168C111.196 54.656 109.828 54.8 107.884 53.216C104.716 50.624 104.212 41.12 111.628 37.52C113.644 36.512 114.796 36.8 116.74 35.864C119.044 34.712 121.204 30.968 124.732 32.84C129.412 35.288 124.948 43.928 128.908 43.928C132.292 43.928 129.556 33.704 130.06 30.104C130.564 26.576 133.084 24.272 134.38 21.248C135.604 18.44 135.316 13.544 136.9 11.024ZM120.772 42.992C119.476 41.696 119.188 39.32 116.884 39.392C114.292 39.464 113.212 42.992 113.212 44.936C113.212 47.024 114.004 47.744 114.364 48.968C114.796 50.552 114.364 53 116.38 53.864C120.772 55.664 125.956 49.832 124.732 46.952C123.868 44.936 121.996 44.216 120.772 42.992Z" fill="#201A1A"/>
<path d="M72.8996 34.208C72.8996 31.112 77.6516 30.968 79.5236 29.456C81.3956 27.944 82.3316 23.84 85.9316 23.84C90.3236 23.84 86.9396 30.608 89.3156 31.328C92.4116 32.264 95.3636 27.656 98.3156 27.512C100.692 27.368 102.636 28.592 102.564 31.472C102.492 33.92 100.836 34.136 99.6836 36.656C98.4596 39.32 99.2516 46.088 95.1476 46.304C92.5556 46.448 91.9076 44.144 92.8436 41.48C93.4196 39.896 95.9396 36.512 92.4836 35.432C89.7476 34.568 88.0196 37.376 87.8036 39.752C87.5156 42.344 88.1636 43.856 87.9476 45.8C87.6596 48.176 85.0676 52.424 86.7236 53.288C88.3796 54.152 91.6196 51.92 94.2836 51.704C96.2276 51.56 96.8756 53.576 96.5156 55.232C96.0116 57.392 94.2836 59.048 90.6116 59.84C87.0116 60.632 83.7716 59.984 80.8196 61.136C77.2916 62.504 76.3556 64.088 73.3316 64.232C70.8116 64.376 69.1556 61.712 70.6676 59.48C72.6836 56.528 75.0596 58.04 77.2916 56.312C79.3796 54.728 80.6036 52.856 81.8276 48.752C83.0516 44.648 82.7636 40.976 83.6996 37.88C84.7076 34.496 82.4036 34.136 80.8916 35.648C79.4516 37.088 78.5156 37.808 76.5716 37.808C74.6276 37.808 72.8996 36.656 72.8996 34.208Z" fill="#201A1A"/>
<path d="M46.5965 36.584C49.8365 33.416 48.7565 29.672 53.2925 29.672C58.1165 29.672 55.9565 34.064 59.9885 34.712C62.4365 35.072 64.5965 34.136 66.2525 35.576C68.2685 37.376 67.3325 39.752 68.1245 41.048C69.1325 42.704 69.6365 44.576 69.2045 47.24C68.6285 50.264 66.6125 52.208 64.0925 53.36C59.4845 55.52 59.9885 62.144 52.4285 62.144C48.0365 62.144 48.1085 59.12 46.3805 57.968C44.7965 56.888 42.7805 57.176 41.7005 55.736C40.9805 54.728 41.2685 51.92 41.2685 49.904C41.2685 47.744 40.1885 43.928 41.1245 41.984C42.2045 39.536 44.3645 38.816 46.5965 36.584ZM50.7725 39.68C47.9645 39.68 46.1645 44.216 46.1645 48.032C46.1645 51.992 48.3965 53.792 51.0605 53.792C53.5805 53.792 55.8125 51.776 57.7565 50.984C59.3405 50.336 63.3725 48.032 63.3725 45.008C63.3725 42.704 61.7165 40.688 59.7005 40.688C58.5485 40.688 57.5405 41.336 56.3885 41.336C54.0125 41.336 52.9325 39.68 50.7725 39.68Z" fill="#201A1A"/>
<path d="M22.688 17.144C24.416 16.928 24.488 15.128 26.216 14.84C27.944 14.552 29.528 16.064 31.616 15.776C33.92 15.488 34.928 12.608 38.096 12.68C41.696 12.752 42.632 18.08 40.184 20.168C37.952 22.112 33.848 18.944 32.408 21.752C31.112 24.272 33.488 27.728 33.272 30.536C33.056 33.488 29.6 35.216 29.528 38.168C29.456 41.84 34.64 43.424 33.992 47.384C33.344 51.416 28.52 52.496 26.288 55.88C23.912 59.408 24.992 63.44 22.616 65.384C20.024 67.544 17.792 65.456 14.696 65.24C12.32 65.096 9.296 67.112 6.92 64.736C4.904 62.72 6.056 58.904 5.048 55.592C4.112 52.568 0.872002 49.256 0.872002 45.872C0.944002 42.56 4.04 39.248 6.776 38.168C9.728 36.944 14.48 38.96 12.68 43.064C11.312 46.16 8.504 46.16 8.864 48.536C9.152 50.408 11.312 50.48 12.248 52.784C13.112 54.872 10.736 57.248 12.104 58.976C13.472 60.704 15.776 60.92 17.504 58.976C19.16 57.104 19.232 54.728 21.104 52.208C22.904 49.832 25.064 49.544 25.64 46.664C26.288 43.352 22.976 37.52 23.192 33.488C23.408 29.744 25.856 28.376 26.144 26C26.432 23.84 24.632 22.544 22.904 22.688C20.888 22.832 18.368 25.208 15.416 25.28C9.8 25.424 9.512 17.432 15.632 16.424C19.16 15.848 20.816 17.36 22.688 17.144Z" fill="#201A1A"/>
</svg>
