<?xml version="1.0" encoding="UTF-8"?>
<svg xmlns="http://www.w3.org/2000/svg" version="1.1" viewBox="0 0 24 24"> width="20" height="20"
  <defs>
    <style>
      .cls-1 {
        fill: #201a1a;
      }
    </style>
  </defs>
  <!-- Generator: Adobe Illustrator 28.6.0, SVG Export Plug-In . SVG Version: 1.2.0 Build 709)  -->
  <g>
    <g id="Layer_1">
      <g id="Layer_1-2" data-name="Layer_1">
        <g id="Layer_1-2">
          <path class="cls-1" d="M19.6,2H4.5c-1.3,0-2.4,1.1-2.4,2.4v15.2c0,1.3,1.1,2.4,2.4,2.4h15.2c1.3,0,2.4-1.1,2.4-2.4V4.5c0-1.3-1.1-2.4-2.4-2.4h0ZM8.2,9.6v9h-2.8v-9h2.8ZM5.4,7c0-.7.6-1.2,1.4-1.2s1.4.5,1.4,1.2-.5,1.2-1.4,1.2-1.4-.5-1.4-1.2ZM18.6,18.6h-2.8v-4.7c0-.9-.5-1.9-1.7-1.9h0c-1.2,0-1.6,1-1.6,1.9v4.7h-2.8v-9h2.8v1.2s.9-1.2,2.7-1.2,3.4,1.2,3.4,3.9v5.1h0Z"/>
        </g>
      </g>
    </g>
  </g>
</svg>