<?xml version="1.0" encoding="UTF-8"?>
<svg id="Layer_2" data-name="Layer 2" xmlns="http://www.w3.org/2000/svg" viewBox="0 0 382.8 51.42">
  <defs>
    <style>
      .cls-1 {
        fill: #181716;
      }
    </style>
  </defs>
  <g id="Layer_1-2" data-name="Layer 1">
    <g>
      <path class="cls-1" d="M57.41,22.82c.07-2.56,4-2.57,5.58-3.78,1.58-1.21,2.45-4.58,5.42-4.5,3.63.1.68,5.62,2.63,6.26,1.95.65,4.41-1.23,5.88-2.36,2.01-1.54,3.57-2.79,6.29-2.66,1.2.06,2.42.38,3.37,1.12s1.59,1.93,1.47,3.12c-.31,3.07-4.06,3.74-6.37,4.63-1.72.67-3.5,1.97-3.58,3.82-.05,1.16.59,2.33.3,3.46-.32,1.25-1.64,1.95-2.87,2.31-.53.16-1.1.28-1.64.14-1.1-.29-1.65-1.63-1.45-2.75.37-2.14,4.08-4.69,2.47-6.97-.95-1.35-2.51-1.16-3.62-.2-2.97,2.56-1.25,4.89-1.71,8.25-.2,1.41-.97,2.9-1.37,4.28-.21.72-.4,1.55.04,2.15.49.66,1.46.66,2.27.78,1.81.26,3.44,1.52,4.15,3.21.51,1.21.48,2.79-.51,3.66-.87.76-2.25.72-3.24.13-.69-.41-1.23-1.03-1.87-1.51-4.22-3.12-7.8,2.13-11.96,2.22-2.09.06-3.39-2.18-2.09-3.99,1.73-2.39,3.66-1.09,5.55-2.47,1.76-1.26,2.81-2.78,3.92-6.15s.95-6.41,1.79-8.94c.91-2.77-.99-3.12-2.27-1.91-1.22,1.16-2.01,1.73-3.62,1.69s-3.01-1.03-2.95-3.06Z"/>
      <path class="cls-1" d="M334.15,26.25c-.1-2.56,3.82-2.84,5.32-4.15,1.5-1.31,2.14-4.74,5.12-4.86,3.98-.16.19,6.52,4.43,6.03,1.08-.12,2-.81,2.91-1.41,1.11-.72,2.31-1.35,3.61-1.6,3.13-.6,6.47,1.79,3.87,4.49-2,2.08-5.79,3.13-4.17,7.18.45,1.12,1.46,2.11,1.31,3.3-.17,1.35-1.7,2.03-3.03,2.34-.66.15-1.37.28-2,.04-.87-.32-1.39-1.25-1.49-2.17-.31-2.69,3.53-6.33,1.76-8.52-1.04-1.28-2.58-.99-3.63.05-2.8,2.76-.92,4.97-1.16,8.36-.1,1.43-.77,2.96-1.08,4.36-.47,2.1.69,2.13,2.38,2.65.88.27,1.59,1.03,1.79,1.92s-.16,1.9-.9,2.44c-.47.35-1.05.51-1.63.6-.81.13-1.64.15-2.46.05-2.1-.25-3.82-.26-5.62.97-.95.65-1.97,1.25-3.1,1.43s-2.41-.13-3.11-1.04c-.92-1.18-.43-3.17.93-3.79,2.05-.94,3.93.05,5.59-1.8,1.24-1.38,1.8-3.41,2.25-5.15.88-3.44.52-6.46,1.19-9.06.72-2.83-1.2-3.05-2.4-1.75-1.14,1.24-1.89,1.87-3.5,1.93s-3.08-.83-3.16-2.86Z"/>
      <path class="cls-1" d="M145.39,38c-.38-1.94-2.19-2.53-3.81-1.38-.18.13-.34.26-.5.41-.94.86-1.64,2.04-2.55,2.9-.32.29-.67.59-1.1.63-.4.04-.79-.15-1.15-.34-1.62-.85-3.44-2.01-3.57-3.83-.13-1.83.99-3.69,1.89-5.21.84-1.42,2.48-2.28,3.08-3.86.24-.62.28-1.3.44-1.95.5-2.01,2.27-2.11,3.6-3.35,1.37-1.28,1.56-3.53.67-5.17s-2.7-2.67-4.56-2.92c-.77-.1-1.59-.08-2.27.29-1.37.74-1.77,2.52-2.96,3.45-1.94,1.51-2.55-.47-4.02-1.19-.96-.47-2.11-.07-2.71.81-.86,1.25-.75,2.76-1.1,4.16-.19.78-.54,1.54-1.1,2.1s-1.37.93-2.17.84c-1.16-.13-2.06-1.18-3.26-.92-1.06.23-1.79,1.36-2.1,2.33-.5,1.57-.28,3.55,1.07,4.5,1.53,1.08,3.63.37,5.35-.37,1.61-.69,3.31-1.46,4.24-2.95.55-.88.77-1.94,1.28-2.85s1.49-1.71,2.51-1.48c.86.2,1.41,1.09,1.5,1.96.3,2.84-2.1,7.85-5.11,8.37-1.91.33-5.79-1.34-6.85,1.1-.31.72-.38,1.57-.9,2.15-1.24,1.4-3.64.39-5.15,1.43-1.81,1.25-1.85,4.28-1.4,6.25s1.73,3.73,3.54,4.57c1.11.52,2.35.67,3.58.74,1.97.12,4.14-.02,5.6-1.34,1-.9,1.51-2.21,2.24-3.34.99-1.52,4.1-3.67,5.04-1.04.62,1.75-1.38,4.77.84,5.9,1.27.64,3.88-.67,4.62-1.68.82-1.12.77-2.73,1.66-3.8.74-.9,1.96-1.21,3-1.73.92-.46,1.77-1.15,2.25-2.06.34-.65.48-1.43.34-2.14ZM125.34,39.83c-.25,1.79-3.03,3.93-6.53,3.94-1.58,0-2-.65-2.02-1.23-.01-1.16,1.76-.9,3.25-1.66,2.09-1.07,2.48-3.27,3.75-3.31,1.06-.02,1.77.66,1.55,2.26Z"/>
      <path class="cls-1" d="M118.63,15.37c-.29-1.48-1.49-1.99-2.23-3.17-.52-.83-.56-1.87-.59-2.86-.06-2.07-.48-4.53-2.49-5.64-5.67-3.1-5.61,7.39-6.78,9.93-1.11,2.4-3.19,4.2-3.67,7.03-.48,2.88,1.49,11.17-1.23,11.1-3.19-.08.6-6.94-3.11-9.01-2.71-1.54-5.21,1.67-7.64,2.62-1.42.55-2.97.93-4.11,1.92-1.58,1.38-2.06,3.66-2.04,5.75.02,3.14.84,6.19-.85,9.05-.9,1.52-2.16,3.04-1.45,4.95.47,1.28,1.7,2.12,3.04,2.32,2.45.38,4.62-1.02,6.34-2.65,2.48-2.33,7.37-8.09,8.89-1.5.32,1.41.71,3.07,2.05,3.64.73.31,1.57.18,2.32-.04.81-.23,1.64-.61,2.06-1.35.64-1.16-.06-2.63-.98-3.59s-2.08-1.77-2.58-2.99c-.32-.77-.34-1.63-.26-2.47.03-.26.06-.51.11-.76.24-1.52.67-3.07,1.61-4.27.98-1.25,2.57-2.08,2.88-3.69.36-1.86-.58-3.7.29-5.54.52-1.1,1.64-1.85,2.12-2.96.57-1.3-.72-2.51-.22-3.84.29-.78,1.24-1.35,2-1.01.8.34,1.01,1.37,1.48,2.11.52.83,1.48,1.36,2.46,1.36,2.45,0,2.99-2.46,2.6-4.46ZM91.34,39.49c-.72-.34-1.13-1.04-1.24-1.81-.08-.53-.06-1.07-.15-1.59-.14-.82-.54-1.56-.76-2.36-.41-1.51-.15-3.48.8-4.74.67-.88,1.92-1.42,2.92-.95.75.35,1.03,1.01,1.43,1.67.51.85,1.18,1.58,1.93,2.21.83.7,1.8,1.4,2.02,2.46.13.65-.06,1.32-.35,1.91-1.07,2.24-4.11,4.3-6.6,3.2Z"/>
      <path class="cls-1" d="M154.48,26.8c-.75.24-1.49.71-1.94,1.17-1.02,1.03-1.91,2.38-3.26,2.79-1.08.33-2.31-.07-3.01-.99s-.83-2.29-.32-3.37c.8-1.69,2.74-2.26,4.35-3.04,1.41-.68,2.74-1.69,3.57-3.1.76-1.3,1.05-2.84,1.73-4.19,1.03-2.06,3.19-2.91,5.24-2.44,1.6.36,3.64,1.6,3.16,3.69-.15.64-.56,1.21-.6,1.87-.19,2.91,2.97-.08,3.56-.58,1.17-.99,2.5-2.31,4.21-2.05,2.11.32,2.13,2.24,3.45,3.56,1.1,1.1,2.88.62,3.88,2.01,2.31,3.2-4.77,6.84-5.16,9.45-.21,1.43.34,2.87.05,4.28-.33,1.61-1.2,2.94-.43,4.67.34.77.97,1.38,1.58,1.97s1.23,1.21,1.56,1.98.32,1.75-.27,2.36c-.4.41-.99.59-1.56.65-.49.05-.99.03-1.45-.15-1.03-.39-1.63-1.46-2.57-2.01-2.29-1.36-4.57,1.27-6.96.91-2.17-.33-2.24-3.19-.04-4.78,2.7-1.95,4.03-1.13,4.83-3.49s-.12-4.67.33-6.83c.45-2.16,3.07-4,2.81-6.46s-3.48-2.94-6.19-.13c-1.88,1.95-1.65,3.84-2.9,5.82-1.43,2.22-5.55,6.21-2.87,8.97.54.56,1.33.97,1.55,1.71.34,1.1-.81,2.12-1.95,2.4s-2.37.15-3.45.61c-1.45.62-2.24,2.12-3.3,3.27s-3.01,1.93-4.16.86c-.81-.76-.75-2.06-.37-3.09,1-2.7,3.41-3.06,5.04-5.06,1.31-1.6,1.35-3.89,2.29-5.68.86-1.64,2.87-4.72,2.11-6.7-.43-1.11-1.5-1.2-2.54-.86Z"/>
      <path class="cls-1" d="M207.37,4.58c2.85.01,5.23,2.32,8.05,2.32,2.1,0,4.65-1.11,6.75-1.11,3.33,0,4.41,2.55,4.55,5.3.09,1.81,1.44,3.3,1.95,5.05.85,2.93-1.19,6.37-4.17,7.02-.83.18-1.7.18-2.5.46-.99.34-2.29,1.46-2.36,2.6-.07,1.23,1.1,1.79,1.96,2.52.9.77,2.19,1.93,2.39,3.17.34,2.19-1.37,4.77.36,6.73s5.08-.73,7.34.61c.82.49,1.35,1.44,1.32,2.4s-.6,1.88-1.45,2.33c-1.05.55-2.31.36-3.49.24s-2.51-.09-3.35.75c-1.05,1.05-.83,2.9-1.79,4.04-.9,1.06-2.69,1.1-3.75.2s-1.36-2.52-.87-3.82c.34-.89.98-1.64,1.39-2.5.9-1.89.94-5.18-.22-6.97-1.09-1.69-3.36-2.28-4.21-4.17-.7-1.55.05-3.31-.55-4.89-.22-.59-.7-1.13-1.32-1.25-.64-.13-1.29.21-1.8.61-1.26.98-2.14,2.47-2.38,4.05-.23,1.47.41,2.92.24,4.36s-1.47,2.49-2.16,3.75c-.43.79-.78,1.66-.72,2.56.09,1.46,1.12,2.11,2.42,2.02,1.71-.12,2.98-.66,4.5.65,1.29,1.12,1.79,3.08,1.18,4.68-.11.28-.24.55-.44.78-.75.86-2.08.82-3.21.7-.56-.06-1.19-.15-1.5-.62-.15-.22-.2-.5-.29-.75-.59-1.59-3.43-1.78-4.64-.86-.77.58-1.02,1.62-1.57,2.42-.76,1.08-2.19,1.66-3.49,1.41s-2.41-1.3-2.73-2.59c-.46-1.9.72-3.81,2.06-5.23,1.16-1.23,3.22-2.65,3.48-4.44.25-1.69-1.01-3.35-.75-5.05.42-2.74,3.35-4.13,3.95-6.91.56-2.62-1.15-6.66.68-8.68.84-.93,1.98-1.54,2.8-2.49s1.23-2.47.4-3.41c-.6-.67-1.61-.78-2.51-.71s-1.82.25-2.69,0c-1.76-.53-2.51-2.88-1.72-4.55s2.67-2.6,4.5-2.72c.13,0,.26-.01.38-.01ZM218.5,11.56c-1.11-.46-2.56,0-3.01.92-.59.98-.2,2.23-.52,3.47-.26,1.05-1.05,1.84-1.7,2.42-1.44,1.51-.52,2.69.92,1.38.59-.59,2.03-1.18,2.82-1.31,1.38-.2,2.75,1.05,4.06.59,1.38-.46,1.44-2.88.46-3.73-.72-.59-1.38-.39-1.9-1.05-.46-.72.07-2.16-1.11-2.69Z"/>
      <path class="cls-1" d="M240.77,24.02c.53-.96,1.57-1.75,2.81-1.93,1.31-.19,2.78.42,3.19,1.47.42,1.07-.26,2.19-.63,3.27-.91,2.7.44,3.08,1.84,5.13.86,1.26,1.29,3.22.95,4.63-.34,1.42-1.46,2.67-1.56,4.11-.1,1.4.88,2.81,2.39,3.43,1.27.52,3,.63,3.61,1.7.59,1.03-.42,2.27-1.67,2.75-1.2.45-2.64.44-3.82-.03-1.65-.66-2.92-2.17-4.74-2.13-1.19.03-2.19.74-2.97,1.49s-1.49,1.59-2.54,2.07-2.58.4-3.18-.46c-.6-.86.06-1.97.97-2.6s2.06-1,2.93-1.67c1.11-.86,1.63-2.12,1.92-3.36s.37-2.51.8-3.72c.57-1.61,1.72-3.08,1.91-4.75.31-2.66-3.37-2.13-5.18-1.04-1.15.69-1.81,1.8-2.69,2.73s-2.24,1.75-3.62,1.47c-1.55-.31-2.29-1.96-1.78-3.22s1.9-2.13,3.35-2.68c2.82-1.06,6-1.11,6.89-4.06.25-.82.34-1.67.72-2.45.02-.05.05-.1.07-.14Z"/>
      <path class="cls-1" d="M263.67,22.58c2.51-1.23,3.84.43,5.66.85,1.97.48,3.42-.05,4.48,1.01.91.91.37,2.3.53,3.31.16,1.01.85,1.76.64,3.1-.27,1.82-2.99,2.4-4.43,1.33-1.33-.96-.96-2.94-1.23-4.7-.21-1.39-1.98-1.28-2.62-.27-.71,1.14-.77,1.82-1.87,2.49-1.31.79-2.39,1.28-3.3,2.63-.89,1.31-1.42,2.94-1.12,4.5s1.58,2.97,3.16,3.12c1.42.13,3.79-.59,4.55-1.91.8-1.38.48-2.84,2.21-3.6,1.22-.54,2.82-.15,3.58.95.77,1.11.61,2.63.15,3.91-.38,1.06-1,2.09-1.98,2.64-.76.42-1.68.52-2.43.97-2.08,1.25-2.9,4.61-5.87,2.7-.61-.39-1.16-.89-1.79-1.25-1.17-.67-2.55-.81-3.87-1.06-1.4-.26-3.51-.73-3.74-2.39s1.12-3.05,1.31-4.67c.21-1.82-.53-2.99-.05-4.64.64-2.14,3.26-2.67,4.38-4.11,1.01-1.34,1.55-3.9,3.63-4.91Z"/>
      <path class="cls-1" d="M310.93,34.19c-.52.22-1.04.52-1.63.66-.64.15-1.35,0-1.87-.4s-.85-1.05-.87-1.71c-.03-1.03.67-1.98,1.56-2.51,1.53-.93,3.36-.75,5-1.32,3.33-1.17,2.49-6.1,3.63-8.84,1.15-2.75,4.19-4.66,7.14-4.24s5.4,3.32,5.1,6.29c-.19,1.91-1.35,3.59-2.72,4.93s-2.96,2.43-4.33,3.76c-1.75,1.7-4.19,4.22-3,6.84,1.45,3.21,5.03-.02,6.46-1.67,1.51-1.75,3.41-3.73,5.69-3.37,2.8.44,2.98,3.36,2.02,5.5-.42.94-1.03,1.92-2.02,2.19-.8.22-1.67-.07-2.46.17-1.54.47-2.59,2.37-4.05,3.14-1.64.87-3.66.93-5.43,1.43-2.11.6-4.16,1.55-5.75,3.09-1.42,1.37-3.07,2.28-4.77.38-.34-.38-.61-.85-.69-1.36-.11-.65.08-1.32.39-1.9.87-1.6,2.46-2.92,4.03-3.77,2.05-1.11,2.41-2.58,2.18-4.74-.12-1.05-.69-2.16-1.7-2.6-.72-.32-1.31-.18-1.9.06ZM323.05,23.44c0-.75-.29-1.33-.98-1.33-1.04,0-2.42,2.72-2.42,4.34,0,.69.23,1.16.92,1.16,1.15,0,2.48-2.49,2.48-4.17Z"/>
      <path class="cls-1" d="M246.68,18.51c-.49-.73-1.52-.94-2.33-.38-.91.66-1.72,2.14-3.12,2.17-1.75.03-3.01-1.71-1.89-3.4.63-.94,1.92-.87,2.71-1.39.77-.47.77-1.39.26-1.82-.67-.56-1.76-.74-2.42-1.55-.94-1.19-.11-3.16,1.39-3.1,1.11.04,1.75.99,2.45,1.25.7.26,1.52-.09,1.71-.86.2-.78-.14-2.77,1.08-3.55,1.42-.89,3.02-.48,3.91.83.73,1.09-.43,2.56-.75,3.39-.34.87.44,1.63,1.21,1.62.92,0,2.01-.83,3.13-.28,1.3.63,1.7,2.24.5,3.44-1.04,1.06-2.42.39-3.37.58-.85.18-1.21.99-.91,1.69.34.71,1.58,1.47,1.32,2.73-.31,1.6-1.84,2.39-3.26,1.6-1.26-.72-1.09-2.22-1.63-2.97Z"/>
      <path class="cls-1" d="M37.89,24.63c2.73-2.67,1.82-5.83,5.65-5.83,4.07,0,2.25,3.7,5.65,4.25,2.07.3,3.89-.49,5.28.73,1.7,1.52.91,3.52,1.58,4.62.85,1.4,1.28,2.98.91,5.22-.49,2.55-2.19,4.19-4.31,5.16-3.89,1.82-3.46,7.41-9.84,7.41-3.7,0-3.64-2.55-5.1-3.52-1.34-.91-3.04-.67-3.95-1.88-.61-.85-.36-3.22-.36-4.92,0-1.82-.91-5.04-.12-6.68.91-2.07,2.73-2.67,4.62-4.55ZM41.42,27.24c-2.37,0-3.89,3.83-3.89,7.04s1.88,4.86,4.13,4.86c2.13,0,4.01-1.7,5.65-2.37,1.34-.55,4.74-2.49,4.74-5.04,0-1.94-1.4-3.64-3.1-3.64-.97,0-1.82.55-2.79.55-2,0-2.92-1.4-4.74-1.4Z"/>
      <path class="cls-1" d="M285.46,4.66c2.44-1.75,3.75-4.72,6.13-4.66,1.88.06,2.06,1.56,2.75,2.66.62.97,1.81,1.49,1.69,3.24-.12,2.07-2.63,2.78-3.69,5.11-.94,2.01.31,4.66-.75,6.73-.94,1.81-4.06,5.56-2.32,7.25,1.76,1.7,3.54-.6,4.57-2,1.17-1.59,2.4-3.24,4.05-4.12,1.52-.81,3.33-.88,4.9-.19,1.09.48,2.11,1.41,2.44,2.7.39,1.52-.27,3.18-1.24,4.31s-2.23,1.86-3.39,2.72-2.28,1.95-2.75,3.45c-.66,2.1-.05,4.34-.55,6.53-.12.52-.23,1.09-.03,1.57.27.66,1.04.87,1.65.64s1.07-.76,1.51-1.29.89-1.08,1.48-1.34c1.16-.51,2.61.48,2.79,1.89.14,1.1-.44,2.22-1.26,2.81-.88.62-2.01.75-2.75,1.57-.68.77-.93,2.04-1.78,2.54-.8.47-1.75.05-2.6-.24-1.91-.65-3.09,1.26-4.95,1.44-1.88.19-3.56-2.53-1.38-4.41,1.31-1.17,2.63-1.1,3.06-3.11.37-1.75-.5-4.34-.31-5.83.19-1.56,3-4.73,1.81-5.5-1.13-.71-2.19,2.46-4,2.53-1.5.06-2.69-1.88-4.13-1.1-1.74.93-.78,2.86-.7,4.5.05.98-.18,1.71-.79,2.39s-1.22,1.2-.83,2.34c.24.69.74,1.21,1.22,1.7s.99,1,1.23,1.69c1.55,4.42-4.96,3.37-6.59,5.05-.69.71-1.22,1.65-2.05,2.13-.48.28-1.03.38-1.57.42-.83.06-1.7,0-2.42-.47-1.02-.65-1.41-1.85-.72-3.03.6-1.03,1.64-1.6,2.65-2.04s2.07-.83,2.88-1.66c1.34-1.38,1.29-5.04,1.45-7.01.24-2.81.1-5.85,1.06-8.5.42-1.16,1.03-2.2,1.73-3.15.56-.76,1.44-1.46,1.82-2.36.75-1.8-.08-4.18.46-6.09.62-2.2,2.62-2.66,3.62-5.89.94-3.04-1.25-3.04-2.69-1.81s-2.81,4.66-5.56,4.66-4.63-4.27-1.12-6.8c1.69-1.23,4.37-.78,6-1.95Z"/>
      <path class="cls-1" d="M19.1,8.91c.56.11,1.13.21,1.69.24,2.08.14,4.23-.13,6.06-1.11,1.99-1.07,4.66-3.98,7.03-2.19,1.74,1.32,1.77,4.5.09,5.87-1.94,1.62-5.38-1.16-6.66,1.21-1.15,2.13.81,5.11.58,7.5-.24,2.51-3.21,3.92-3.33,6.44-.13,3.13,4.26,4.57,3.64,7.94-.62,3.42-4.76,4.26-6.72,7.1-2.09,2.96-1.24,6.42-3.3,8.03-2.25,1.79-4.11-.03-6.75-.27-2.02-.17-4.64,1.5-6.62-.57-1.68-1.76-.63-4.99-1.43-7.83C2.64,38.68-.06,35.8,0,32.92c.05-2.45,2.1-4.79,4.13-5.96,1.16-.67,2.57-.99,3.86-.63s2.39,1.5,2.48,2.84c.09,1.41-.88,2.67-1.98,3.56-3.64,2.97,0,3.46,1.08,6.28.7,1.8-1.37,3.78-.24,5.27,1.13,1.5,3.09,1.72,4.6.1,1.45-1.56,1.55-3.59,3.19-5.7,1.58-1.99,3.42-2.2,3.97-4.64.63-2.81-1.21-5.63-1.62-8.35-.29-1.91-.18-3.94.66-5.68.53-1.1,1.35-2.07,1.65-3.26.45-1.75-.77-3.31-2.58-3.2-2.73.17-4.93,2.96-7.86,1.86-1.63-.61-2.5-2.64-2-4.31,1.31-4.41,6.6-2.84,9.76-2.2Z"/>
      <path class="cls-1" d="M375.51,6.03c.21.55.29,1.15.2,1.73-.3,1.99-1.44,2.59-2.11,4.32-.08.2-.14.41-.12.62.04.31.27.57.53.74,2.15,1.41,7.92-3.62,8.72.68.83,4.49-5.33,3.37-7.48,3.75-2.57.46-3.22,3.2-3.81,5.38-.67,2.48-1.01,4.73-1.89,7.17-.67,1.87-.4,3.72-.27,5.64.1,1.38-.3,2.97.44,4.24.39.67,1.21,1.16,1.96.93.77-.24,1.15-1.09,1.74-1.64,2.41-2.26,5.79,1.24,3.84,3.72-1.47,1.86-4.41,1.06-6.51,2.06-1.9.91-2.8,3.07-4.68,3.99-.98.48-2.28.5-3.07-.26-.62-.59-.81-1.52-.74-2.37.32-3.97,4.43-6.88,1.98-10.86-.95-1.54-2.63-2.88-2.5-4.68.1-1.41,1.3-2.45,2.28-3.48,2.48-2.62,5.61-7.94,1.84-10.85-2.36-1.83-5.26.25-7.7.92-1.12.3-2.48.49-3.29-.34-.62-.64-.63-1.71-.22-2.5s1.16-1.36,1.94-1.8c2.23-1.26,4.57-1.44,7.06-1.2,1.62.16,4.01.81,5.33-.48,1.72-1.67-.11-4.33,1.02-6.23.73-1.22,2.55-1.65,3.88-1.02.77.37,1.34,1.04,1.64,1.81Z"/>
    </g>
  </g>
</svg>